# xmcd
#
# Track frame offsets:
#	150
#	11475
#	27562
#	40800
#	51150
#	71587
#	85762
#	96450
#
# Disc length: 1480 seconds
# Revision: 1
# Processed by: cddbd v1.5.2PL0 Copyright (c) Steve Scherf et al.
# Submitted via: dBpowerAMP V12.0
#
DISCID=6405c608
DTITLE=Various Artist - Bluegrass Number 1’s: A Collection Of Chart Topping Songs [CD#2)
DYEAR=2004
DGENRE=Bluegrass
TTITLE0=Tom Adams - Whistling Rufus
TTITLE1=Alecia Nugent - Paper and Pen
TTITLE2=Open Road - I'm Not Perfect
TTITLE3=Rob Ickes - Fiddler's Dream
TTITLE4=Ginny Hawker - My Warfare Will Soon Be Over
TTITLE5=Dirk Powell - Goin' Where I've Never Been Before
TTITLE6=Bruce Molsky - Johnson City Rag
TTITLE7=Ron Block - Faraway Land
EXTD=
EXTT0=
EXTT1=
EXTT2=
EXTT3=
EXTT4=
EXTT5=
EXTT6=
EXTT7=
PLAYORDER=
